<?xml version="1.0" encoding="iso-8859-1"?>
<!-- Generator: Adobe Illustrator 19.0.0, SVG Export Plug-In . SVG Version: 6.00 Build 0)  -->
<svg version="1.1" id="Layer_1" xmlns="http://www.w3.org/2000/svg" xmlns:xlink="http://www.w3.org/1999/xlink" x="0px" y="0px"
	 viewBox="0 0 512 512" style="enable-background:new 0 0 512 512;" xml:space="preserve">
<g>
	<g>
		<path d="M394.068,276.12c-7.751,0-15.4,0.746-22.893,2.223v-8.056h39.692V150.452h-39.692v-30.599h39.692V0.015H0v119.837h39.692
			v30.599H0v119.836h39.692v30.6H0v119.837h39.692v61.944h276.58c21.532,18.949,48.907,29.315,77.796,29.315
			c65.027,0,117.932-52.904,117.932-117.932C512,329.025,459.097,276.12,394.068,276.12z M31.345,88.508v-0.001V31.36h348.178
			v57.147h-8.347H39.692H31.345z M339.831,119.852v30.599H71.037v-30.599H339.831z M31.345,238.943v-57.146h8.347h331.484h8.347
			v57.146H31.345z M339.83,270.895v18.418c-0.424,0.22-0.836,0.464-1.258,0.689c-0.921,0.491-1.838,0.987-2.744,1.502
			c-0.602,0.343-1.197,0.696-1.793,1.048c-0.876,0.518-1.745,1.045-2.607,1.586c-0.59,0.371-1.178,0.747-1.762,1.128
			c-0.857,0.56-1.705,1.133-2.547,1.715c-0.562,0.389-1.125,0.776-1.681,1.175c-0.861,0.616-1.708,1.252-2.552,1.893
			c-0.373,0.283-0.759,0.549-1.128,0.837H71.037v-29.992H339.83z M71.037,451.324v-30.598h208.148
			c0.043,0.184,0.094,0.366,0.138,0.55c0.116,0.486,0.243,0.967,0.365,1.451c0.259,1.033,0.53,2.063,0.817,3.088
			c0.151,0.539,0.307,1.076,0.466,1.612c0.296,0.999,0.606,1.992,0.928,2.982c0.163,0.5,0.322,1.002,0.491,1.5
			c0.401,1.181,0.824,2.354,1.263,3.521c0.107,0.283,0.204,0.569,0.312,0.853c0.554,1.441,1.138,2.869,1.748,4.286
			c0.167,0.388,0.346,0.77,0.517,1.157c0.459,1.035,0.928,2.066,1.416,3.087c0.234,0.49,0.475,0.976,0.716,1.463
			c0.46,0.93,0.932,1.854,1.416,2.771c0.254,0.482,0.508,0.962,0.768,1.44c0.151,0.278,0.293,0.561,0.447,0.838H71.037z
			 M292.91,333.465c-0.377,0.629-0.747,1.262-1.112,1.897c-0.215,0.375-0.432,0.75-0.643,1.127
			c-0.385,0.689-0.761,1.383-1.132,2.079c-0.171,0.321-0.347,0.639-0.515,0.962c-0.53,1.017-1.048,2.038-1.547,3.069
			c-0.046,0.095-0.089,0.191-0.134,0.285c-0.453,0.94-0.893,1.886-1.321,2.838c-0.158,0.351-0.308,0.705-0.463,1.058
			c-0.308,0.705-0.613,1.412-0.908,2.123c-0.166,0.401-0.328,0.804-0.49,1.207c-0.275,0.682-0.542,1.368-0.804,2.055
			c-0.153,0.402-0.306,0.806-0.454,1.209c-0.268,0.731-0.528,1.466-0.783,2.203c-0.122,0.356-0.25,0.711-0.369,1.067
			c-0.342,1.023-0.672,2.05-0.986,3.081c-0.021,0.068-0.044,0.136-0.065,0.205c-0.333,1.103-0.648,2.212-0.95,3.325
			c-0.093,0.342-0.178,0.686-0.266,1.029c-0.203,0.778-0.401,1.557-0.589,2.339c-0.098,0.411-0.191,0.822-0.285,1.235
			c-0.166,0.729-0.326,1.461-0.479,2.195c-0.088,0.421-0.174,0.842-0.257,1.265c-0.149,0.761-0.289,1.522-0.423,2.286
			c-0.068,0.383-0.139,0.767-0.203,1.151c-0.161,0.972-0.309,1.947-0.446,2.923c-0.024,0.171-0.053,0.342-0.076,0.513
			c-0.157,1.154-0.295,2.311-0.417,3.472c-0.033,0.321-0.06,0.644-0.091,0.964c-0.081,0.841-0.158,1.683-0.221,2.526
			c-0.031,0.415-0.056,0.83-0.084,1.244c-0.05,0.764-0.093,1.53-0.127,2.296c-0.01,0.227-0.029,0.451-0.038,0.678H39.692h-8.347
			v-57.142h8.347v0.607h253.585C293.152,333.046,293.035,333.258,292.91,333.465z M394.068,480.64
			c-22.833,0-44.378-8.815-60.669-24.822c-2.676-2.63-5.168-5.421-7.464-8.35c-6.889-8.79-12.02-18.831-15.095-29.513
			c-1.367-4.748-2.328-9.622-2.857-14.568c-0.332-3.109-0.502-6.249-0.502-9.332c0-3.893,0.262-7.758,0.777-11.571
			c0.121-0.896,0.26-1.79,0.41-2.68c3.267-19.556,13.19-37.575,28.329-50.859l0.855-0.736c1.698-1.451,3.443-2.839,5.238-4.149
			c4.726-3.449,9.778-6.404,15.102-8.83c1.065-0.485,2.14-0.949,3.227-1.392c10.374-4.227,21.36-6.371,32.651-6.371
			c47.744,0,86.587,38.843,86.587,86.588C480.655,441.797,441.813,480.64,394.068,480.64z"/>
	</g>
</g>
<g>
	<g>
		<rect x="49.791" y="49.093" width="21.68" height="21.68"/>
	</g>
</g>
<g>
	<g>
		<rect x="88.799" y="49.093" width="21.68" height="21.68"/>
	</g>
</g>
<g>
	<g>
		<rect x="49.791" y="199.532" width="21.68" height="21.68"/>
	</g>
</g>
<g>
	<g>
		<rect x="88.799" y="199.532" width="21.68" height="21.68"/>
	</g>
</g>
<g>
	<g>
		<rect x="49.791" y="351.378" width="21.68" height="21.68"/>
	</g>
</g>
<g>
	<g>
		<rect x="88.799" y="351.378" width="21.68" height="21.68"/>
	</g>
</g>
<g>
	<g>
		<polygon points="417.277,396.142 444.247,369.172 422.082,347.008 395.113,373.978 366.727,345.592 344.563,367.756 
			372.949,396.142 345.98,423.111 368.144,445.275 395.113,418.306 423.499,446.692 445.663,424.529 		"/>
	</g>
</g>
<g>
</g>
<g>
</g>
<g>
</g>
<g>
</g>
<g>
</g>
<g>
</g>
<g>
</g>
<g>
</g>
<g>
</g>
<g>
</g>
<g>
</g>
<g>
</g>
<g>
</g>
<g>
</g>
<g>
</g>
</svg>
